<?xml version="1.0" encoding="utf-8"?>
<!-- Generator: Adobe Illustrator 24.1.3, SVG Export Plug-In . SVG Version: 6.00 Build 0)  -->
<svg version="1.1" id="Layer_1" xmlns="http://www.w3.org/2000/svg" xmlns:xlink="http://www.w3.org/1999/xlink" x="0px" y="0px"
	 viewBox="0 0 96 96" style="enable-background:new 0 0 96 96;" xml:space="preserve">
<style type="text/css">
	.st0{fill:#B6AC67;}
</style>
<path class="st0" d="M70.5,30.9c-0.2,0.4-0.3,0.8-0.5,1.1c-2.5,4.5-5,9-7.5,13.5c-0.3,0.7-0.8,0.9-1.6,0.9c-6.9,0-13.8,0-20.7,0
	c-0.7,0-1.2-0.2-1.4-0.8c-1.9-4.5-3.8-9.1-5.7-13.6c-0.1-0.3-0.2-0.7-0.3-1.1H70.5z"/>
<path class="st0" d="M91,0H5C2.2,0,0,2.2,0,5v86c0,2.8,2.2,5,5,5h86c2.8,0,5-2.2,5-5V5C96,2.2,93.8,0,91,0z M35.6,80.7
	c-3.4,0-6.2-2.7-6.2-6.2c0-3.5,2.7-6.3,6.2-6.3c3.5,0,6.1,2.8,6.1,6.3C41.7,77.9,38.9,80.7,35.6,80.7z M66.7,80.7
	c-3.4,0-6.2-2.7-6.2-6.2c0-3.5,2.7-6.3,6.2-6.3c3.4,0,6.2,2.9,6.2,6.3C72.8,77.9,70.1,80.7,66.7,80.7z M78.5,29.6
	c-2.7,4.9-5.4,9.8-8.2,14.7c-0.9,1.6-1.8,3.1-2.6,4.7c-1.3,2.4-3.3,3.6-6.1,3.6c-7.2,0-14.3,0-21.5,0c-1,0-1.5,0.3-2,1.1
	c-0.8,1.4-1.7,2.7-2.5,4c-0.6,0.9-0.5,1.1,0.7,1.2H37c11.6,0,23.1,0,34.7,0c1,0,1.3,0.2,1.2,1.2c-0.1,1.3,0,2.7,0,4c0,0.7-0.2,1-1,1
	c-12.1,0-24.2-0.1-36.2,0c-5.2,0-8.5-5.4-5.7-9.9c1.1-1.7,2.1-3.5,3.2-5.2c0.4-0.6,0.4-1.1,0.1-1.7c-3.2-7.6-6.3-15.1-9.5-22.7
	c-0.3-0.7-0.6-0.9-1.3-0.9c-1.8,0-3.5,0-5.5,0c0-2,0-3.8,0-5.6c0-0.2,0.4-0.7,0.7-0.7c3.1,0,6.1,0,9.2,0c0.3,0,0.8,0.4,1,0.8
	c0.7,1.5,1.3,3.1,2,4.6c0.2,0.3,0.7,0.7,1.1,0.8c1.3,0.1,2.6,0.1,3.9,0c0.5,0,1.1-0.4,1.5-0.7c2.6-2.5,5.1-5.1,7.7-7.6
	c0.3-0.3,0.6-0.5,1.1-1c1.8,1.9,3.6,3.8,5.4,5.6c1,1.1,2.1,2.1,3.2,3.1c0.4,0.3,1,0.6,1.5,0.6c1.6,0.1,3.2,0,4.8,0
	c0-0.1,0.1-0.2,0.1-0.3c-0.6-0.7-1.2-1.3-1.9-2c-0.6-0.6-1.2-1.2-1.8-1.8c-0.5-0.4-0.5-0.8,0-1.3c1.3-1.3,2.6-2.6,3.9-4
	c0.4,0.4,0.8,0.6,1.1,0.9c2.5,2.5,5,5.1,7.6,7.5c0.5,0.4,1.2,0.7,1.9,0.8c1.5,0.1,3.1,0,4.7,0C78.5,24.7,79.9,27,78.5,29.6z"/>
<path class="st0" d="M91,0H5C2.2,0,0,2.2,0,5v86c0,2.8,2.2,5,5,5h86c2.8,0,5-2.2,5-5V5C96,2.2,93.8,0,91,0z M35.6,80.7
	c-3.4,0-6.2-2.7-6.2-6.2c0-3.5,2.7-6.3,6.2-6.3c3.5,0,6.1,2.8,6.1,6.3C41.7,77.9,38.9,80.7,35.6,80.7z M66.7,80.7
	c-3.4,0-6.2-2.7-6.2-6.2c0-3.5,2.7-6.3,6.2-6.3c3.4,0,6.2,2.9,6.2,6.3C72.8,77.9,70.1,80.7,66.7,80.7z M78.5,29.6
	c-2.7,4.9-5.4,9.8-8.2,14.7c-0.9,1.6-1.8,3.1-2.6,4.7c-1.3,2.4-3.3,3.6-6.1,3.6c-7.2,0-14.3,0-21.5,0c-1,0-1.5,0.3-2,1.1
	c-0.8,1.4-1.7,2.7-2.5,4c-0.6,0.9-0.5,1.1,0.7,1.2H37c11.6,0,23.1,0,34.7,0c1,0,1.3,0.2,1.2,1.2c-0.1,1.3,0,2.7,0,4c0,0.7-0.2,1-1,1
	c-12.1,0-24.2-0.1-36.2,0c-5.2,0-8.5-5.4-5.7-9.9c1.1-1.7,2.1-3.5,3.2-5.2c0.4-0.6,0.4-1.1,0.1-1.7c-3.2-7.6-6.3-15.1-9.5-22.7
	c-0.3-0.7-0.6-0.9-1.3-0.9c-1.8,0-3.5,0-5.5,0c0-2,0-3.8,0-5.6c0-0.2,0.4-0.7,0.7-0.7c3.1,0,6.1,0,9.2,0c0.3,0,0.8,0.4,1,0.8
	c0.7,1.5,1.3,3.1,2,4.6c0.2,0.3,0.7,0.7,1.1,0.8c1.3,0.1,2.6,0.1,3.9,0c0.5,0,1.1-0.4,1.5-0.7c2.6-2.5,5.1-5.1,7.7-7.6
	c0.3-0.3,0.6-0.5,1.1-1c1.8,1.9,3.6,3.8,5.4,5.6c1,1.1,2.1,2.1,3.2,3.1c0.4,0.3,1,0.6,1.5,0.6c1.6,0.1,3.2,0,4.8,0
	c0-0.1,0.1-0.2,0.1-0.3c-0.6-0.7-1.2-1.3-1.9-2c-0.6-0.6-1.2-1.2-1.8-1.8c-0.5-0.4-0.5-0.8,0-1.3c1.3-1.3,2.6-2.6,3.9-4
	c0.4,0.4,0.8,0.6,1.1,0.9c2.5,2.5,5,5.1,7.6,7.5c0.5,0.4,1.2,0.7,1.9,0.8c1.5,0.1,3.1,0,4.7,0C78.5,24.7,79.9,27,78.5,29.6z
	 M33.2,32c1.9,4.5,3.8,9,5.7,13.6c0.3,0.7,0.8,0.8,1.4,0.8c6.9,0,13.8,0,20.7,0c0.7,0,1.2-0.2,1.6-0.9c2.5-4.5,5-9,7.5-13.5
	c0.2-0.3,0.3-0.7,0.5-1.1H32.8C33,31.4,33,31.7,33.2,32z"/>
</svg>
