<?xml version="1.0" encoding="utf-8"?>
<!-- Generator: Adobe Illustrator 24.1.3, SVG Export Plug-In . SVG Version: 6.00 Build 0)  -->
<svg version="1.1" id="Layer_1" xmlns="http://www.w3.org/2000/svg" xmlns:xlink="http://www.w3.org/1999/xlink" x="0px" y="0px"
	 viewBox="0 0 96 96" style="enable-background:new 0 0 96 96;" xml:space="preserve">
<style type="text/css">
	.st0{fill:#B6AC67;}
</style>
<path class="st0" d="M91,0H5C2.2,0,0,2.2,0,5v86c0,2.8,2.2,5,5,5h35.9V65.1c0-1.2-0.3-1.5-1.4-1.4c-3.9,0.1-7.7,0-11.6,0.1
	c-1,0-1.2-0.3-1.2-1.2c0.1-3.9,0.1-7.8,0-11.8c0-1.1,0.4-1.2,1.3-1.2h11.6c1,0,1.3-0.2,1.3-1.3c-0.1-4.2,0-8.4,0-12.5
	c0-2.3,0.4-4.5,1.1-6.7c2-6.3,6.8-10,13.7-10.5c4.2-0.3,8.4-0.1,12.5,0.3c0.8,0.1,1,0.4,1,1.2c0.1,3.6,0.1,7.4,0.1,11.3
	c0,0.9-0.3,1-1,1c-2.3,0-4.7-0.1-7,0c-3.9,0.1-5.8,1.9-6,5.8c-0.2,3.4-0.1,6.9-0.1,10.3c0,0.8,0.3,0.9,1,0.9h11.6
	c1.2,0,1.7,0.1,1.3,1.5c-0.9,3.9-1.6,7.8-2.4,11.8c-0.1,0.8-0.5,1-1.2,1h-9c-1.1,0-1.4,0.2-1.4,1.3c0.1,5.2,0,10.5,0,15.7V96H91
	c2.8,0,5-2.2,5-5V5C96,2.2,93.8,0,91,0z"/>
<path class="st0" d="M96,5v86c0,2.8-2.2,5-5,5H55.1V80.7c0-5.2,0.1-10.5,0-15.7c0-1.1,0.3-1.3,1.4-1.3h9c0.7,0,1.1-0.2,1.2-1
	c0.8-4,1.5-7.9,2.4-11.8c0.4-1.4-0.1-1.5-1.3-1.5H56.2c-0.7,0-1-0.1-1-0.9c0-3.4-0.1-6.9,0.1-10.3c0.2-3.9,2.1-5.7,6-5.8
	c2.3-0.1,4.7,0,7,0c0.7,0,1-0.1,1-1c0-3.9,0-7.7-0.1-11.3c0-0.8-0.2-1.1-1-1.2c-4.1-0.4-8.3-0.6-12.5-0.3C48.8,19.1,44,22.8,42,29.1
	c-0.7,2.2-1.1,4.4-1.1,6.7c0,4.1-0.1,8.3,0,12.5c0,1.1-0.3,1.3-1.3,1.3H28c-0.9,0-1.3,0.1-1.3,1.2c0.1,4,0.1,7.9,0,11.8
	c0,0.9,0.2,1.2,1.2,1.2c3.9-0.1,7.7,0,11.6-0.1c1.1-0.1,1.4,0.2,1.4,1.4V96H5c-2.8,0-5-2.2-5-5V5c0-2.8,2.2-5,5-5h86
	C93.8,0,96,2.2,96,5z"/>
</svg>
